<svg width="24" height="24" viewBox="0 0 24 24" fill="none" xmlns="http://www.w3.org/2000/svg">
<path d="M8.66746 1.31995H3.33261C2.67614 1.3206 2.04677 1.57067 1.58266 2.01527C1.11855 2.45986 0.857632 3.06265 0.857178 3.69129V8.79843C0.857632 9.42707 1.11855 10.0299 1.58266 10.4745C2.04677 10.919 2.67614 11.1691 3.33261 11.1698H8.66746C9.32393 11.1691 9.9533 10.919 10.4174 10.4745C10.8815 10.0299 11.1424 9.42707 11.1429 8.79843V3.69129C11.1424 3.06265 10.8815 2.45986 10.4174 2.01527C9.9533 1.57067 9.32393 1.3206 8.66746 1.31995V1.31995ZM9.42861 8.79843C9.42861 8.99182 9.34844 9.17729 9.20573 9.31412C9.06301 9.45094 8.86941 9.52792 8.66746 9.52813H3.33261C3.13066 9.52792 2.93706 9.45094 2.79435 9.31412C2.65163 9.17729 2.57146 8.99182 2.57146 8.79843V3.69129C2.57146 3.4979 2.65163 3.31242 2.79435 3.1756C2.93706 3.03878 3.13066 2.9618 3.33261 2.96158H8.66746C8.86941 2.9618 9.06301 3.03878 9.20573 3.1756C9.34844 3.31242 9.42861 3.4979 9.42861 3.69129V8.79843Z" fill="#343A40"/>
<path d="M20.6675 1.31995H15.3326C14.6761 1.3206 14.0468 1.57067 13.5827 2.01527C13.1186 2.45986 12.8576 3.06265 12.8572 3.69129V8.79843C12.8576 9.42707 13.1186 10.0299 13.5827 10.4745C14.0468 10.919 14.6761 11.1691 15.3326 11.1698H20.6675C21.3239 11.1691 21.9533 10.919 22.4174 10.4745C22.8815 10.0299 23.1424 9.42707 23.1429 8.79843V3.69129C23.1424 3.06265 22.8815 2.45986 22.4174 2.01527C21.9533 1.57067 21.3239 1.3206 20.6675 1.31995V1.31995ZM21.4286 8.79843C21.4286 8.99182 21.3484 9.17729 21.2057 9.31412C21.063 9.45094 20.8694 9.52792 20.6675 9.52813H15.3326C15.1307 9.52792 14.9371 9.45094 14.7943 9.31412C14.6516 9.17729 14.5715 8.99182 14.5715 8.79843V3.69129C14.5715 3.4979 14.6516 3.31242 14.7943 3.1756C14.9371 3.03878 15.1307 2.9618 15.3326 2.96158H20.6675C20.8694 2.9618 21.063 3.03878 21.2057 3.1756C21.3484 3.31242 21.4286 3.4979 21.4286 3.69129V8.79843Z" fill="#343A40"/>
<path d="M20.6675 12.8114H15.3326C14.6761 12.8121 14.0468 13.0621 13.5827 13.5067C13.1186 13.9513 12.8576 14.5541 12.8572 15.1827V20.2899C12.8576 20.9185 13.1186 21.5213 13.5827 21.9659C14.0468 22.4105 14.6761 22.6606 15.3326 22.6612H20.6675C21.3239 22.6606 21.9533 22.4105 22.4174 21.9659C22.8815 21.5213 23.1424 20.9185 23.1429 20.2899V15.1827C23.1424 14.5541 22.8815 13.9513 22.4174 13.5067C21.9533 13.0621 21.3239 12.8121 20.6675 12.8114V12.8114ZM21.4286 20.2899C21.4286 20.4833 21.3484 20.6688 21.2057 20.8056C21.063 20.9424 20.8694 21.0194 20.6675 21.0196H15.3326C15.1307 21.0194 14.9371 20.9424 14.7943 20.8056C14.6516 20.6688 14.5715 20.4833 14.5715 20.2899V15.1827C14.5715 14.9894 14.6516 14.8039 14.7943 14.6671C14.9371 14.5302 15.1307 14.4533 15.3326 14.453H20.6675C20.8694 14.4533 21.063 14.5302 21.2057 14.6671C21.3484 14.8039 21.4286 14.9894 21.4286 15.1827V20.2899Z" fill="#343A40"/>
<path d="M8.66746 12.8114H3.33261C2.67614 12.8121 2.04677 13.0621 1.58266 13.5067C1.11855 13.9513 0.857632 14.5541 0.857178 15.1827V20.2899C0.857632 20.9185 1.11855 21.5213 1.58266 21.9659C2.04677 22.4105 2.67614 22.6606 3.33261 22.6612H8.66746C9.32393 22.6606 9.9533 22.4105 10.4174 21.9659C10.8815 21.5213 11.1424 20.9185 11.1429 20.2899V15.1827C11.1424 14.5541 10.8815 13.9513 10.4174 13.5067C9.9533 13.0621 9.32393 12.8121 8.66746 12.8114V12.8114ZM9.42861 20.2899C9.42861 20.4833 9.34844 20.6688 9.20573 20.8056C9.06301 20.9424 8.86941 21.0194 8.66746 21.0196H3.33261C3.13066 21.0194 2.93706 20.9424 2.79435 20.8056C2.65163 20.6688 2.57146 20.4833 2.57146 20.2899V15.1827C2.57146 14.9894 2.65163 14.8039 2.79435 14.6671C2.93706 14.5302 3.13066 14.4533 3.33261 14.453H8.66746C8.86941 14.4533 9.06301 14.5302 9.20573 14.6671C9.34844 14.8039 9.42861 14.9894 9.42861 15.1827V20.2899Z" fill="#343A40"/>
</svg>
