<svg width="24" height="24" viewBox="0 0 24 24" fill="none" xmlns="http://www.w3.org/2000/svg">
<path d="M18 21.7698H6C4.89543 21.7698 4 20.9123 4 19.8546V4.53261C4 3.47485 4.89543 2.61737 6 2.61737H13C13.0109 2.61782 13.0217 2.61976 13.032 2.62312C13.0418 2.62601 13.0518 2.62793 13.062 2.62886C13.1502 2.63428 13.2373 2.65069 13.321 2.6777L13.349 2.68632C13.3717 2.69368 13.3937 2.70264 13.415 2.71313C13.5239 2.7595 13.6232 2.82439 13.708 2.90466L19.708 8.65039C19.7918 8.73158 19.8596 8.82665 19.908 8.93097C19.918 8.95204 19.925 8.97407 19.933 8.99609L19.942 9.02099C19.9699 9.10085 19.9864 9.18396 19.991 9.26806C19.9926 9.27685 19.9949 9.2855 19.998 9.29391C19.9998 9.30274 20.0004 9.31174 20.0001 9.32072V19.8546C20.0001 20.9123 19.1046 21.7698 18 21.7698ZM6 4.53261V19.8546H18V10.2783H13C12.4477 10.2783 12 9.84961 12 9.32072V4.53261H6ZM14 5.88669V8.3631H16.586L14 5.88669Z" fill="#343A40"/>
</svg>
