<svg width="24" height="24" viewBox="0 0 24 24" fill="none" xmlns="http://www.w3.org/2000/svg">
<path d="M13.7143 1.1322C13.4869 1.1322 13.2689 1.21868 13.1082 1.37261C12.9474 1.52655 12.8571 1.73533 12.8571 1.95302V10.1612C12.8571 10.3789 12.9474 10.5877 13.1082 10.7416C13.2689 10.8956 13.4869 10.982 13.7143 10.982H22.2857C22.513 10.982 22.731 10.8956 22.8918 10.7416C23.0525 10.5877 23.1428 10.3789 23.1428 10.1612C23.1399 7.76744 22.1456 5.47251 20.378 3.77986C18.6104 2.0872 16.214 1.13503 13.7143 1.1322V1.1322ZM14.5714 9.34039V2.81981C16.3095 3.00844 17.9294 3.75604 19.1664 4.94043C20.4033 6.12483 21.1842 7.67598 21.3814 9.34039H14.5714Z" fill="#343A40"/>
<path d="M18.857 12.6869H11.1427V5.23632C11.1427 5.01862 11.0524 4.80984 10.8917 4.65591C10.7309 4.50198 10.5129 4.4155 10.2856 4.4155C9.02436 4.415 7.77585 4.65683 6.61396 5.12666C5.45207 5.59649 4.40042 6.28478 3.52128 7.15078C2.64213 8.01678 1.95335 9.04288 1.49572 10.1684C1.03809 11.2938 0.820899 12.4958 0.857016 13.7031C0.952471 15.9974 1.94595 18.1732 3.63997 19.7982C5.33399 21.4232 7.6045 22.3782 10.0002 22.4735H10.289C12.7765 22.4727 15.1628 21.5306 16.9282 19.8525C18.6936 18.1744 19.6949 15.8962 19.7142 13.5143C19.7151 13.4059 19.6936 13.2985 19.6509 13.1981C19.6082 13.0978 19.5452 13.0065 19.4655 12.9296C19.3859 12.8527 19.2911 12.7916 19.1866 12.75C19.0822 12.7083 18.9702 12.6869 18.857 12.6869V12.6869ZM15.6342 18.7659C14.8961 19.4517 14.0213 19.9881 13.062 20.3431C12.1027 20.698 11.0786 20.8643 10.0507 20.8319C8.09093 20.754 6.23351 19.9727 4.84772 18.6434C3.46193 17.314 2.64927 15.534 2.5713 13.6571C2.51638 11.8041 3.19099 9.99896 4.46124 8.60009C5.73149 7.20121 7.50452 6.31079 9.42845 6.10556V13.511C9.42845 13.7287 9.51875 13.9375 9.6795 14.0914C9.84024 14.2453 10.0583 14.3318 10.2856 14.3318H17.9424C17.7342 16.0217 16.9181 17.5895 15.6342 18.7659V18.7659Z" fill="#343A40"/>
</svg>
