<svg width="24" height="24" viewBox="0 0 24 24" fill="none" xmlns="http://www.w3.org/2000/svg">
<path d="M13.82 21.1407H10.18C9.71009 21.1407 9.30353 20.8275 9.20298 20.388L8.79598 18.5838C8.25303 18.356 7.7382 18.0711 7.26098 17.7344L5.42398 18.2946C4.97598 18.4314 4.48897 18.2508 4.25398 17.8608L2.42998 14.8433C2.19757 14.4531 2.27764 13.9609 2.62298 13.6568L4.04798 12.4119C3.98318 11.848 3.98318 11.279 4.04798 10.715L2.62298 9.47299C2.27713 9.16882 2.19703 8.67598 2.42998 8.28554L4.24998 5.26616C4.48497 4.87612 4.97198 4.69555 5.41998 4.83236L7.25698 5.39257C7.50104 5.21939 7.75511 5.05953 8.01798 4.91376C8.27032 4.77748 8.53002 4.65409 8.79598 4.54411L9.20398 2.74187C9.30405 2.30229 9.71017 1.98869 10.18 1.98822H13.82C14.2898 1.98869 14.6959 2.30229 14.796 2.74187L15.208 4.54507C15.4888 4.66335 15.7622 4.797 16.027 4.94536C16.2739 5.08212 16.5126 5.23206 16.742 5.39448L18.58 4.83427C19.0277 4.69797 19.5141 4.87848 19.749 5.26808L21.569 8.28746C21.8014 8.67767 21.7213 9.16992 21.376 9.47395L19.951 10.7189C20.0158 11.2828 20.0158 11.8518 19.951 12.4158L21.376 13.6607C21.7213 13.9647 21.8014 14.457 21.569 14.8472L19.749 17.8666C19.5141 18.2562 19.0277 18.4367 18.58 18.3004L16.742 17.7401C16.5094 17.9042 16.2677 18.056 16.018 18.195C15.7558 18.3405 15.4854 18.4719 15.208 18.5886L14.796 20.388C14.6955 20.8272 14.2895 21.1403 13.82 21.1407ZM7.61998 15.6142L8.43998 16.1888C8.62483 16.3192 8.81749 16.4391 9.01698 16.5479C9.20468 16.652 9.39795 16.7466 9.59598 16.8314L10.529 17.223L10.986 19.2254H13.016L13.473 17.2221L14.406 16.8304C14.8133 16.6584 15.1999 16.4446 15.559 16.1926L16.38 15.6181L18.421 16.2405L19.436 14.557L17.853 13.1752L17.965 12.206C18.0142 11.7822 18.0142 11.3544 17.965 10.9305L17.853 9.96138L19.437 8.57666L18.421 6.8922L16.38 7.51466L15.559 6.94008C15.1998 6.68699 14.8132 6.47157 14.406 6.29752L13.473 5.90585L13.016 3.90346H10.986L10.527 5.90681L9.59598 6.29752C9.39779 6.38087 9.2045 6.47454 9.01698 6.5781C8.81872 6.68663 8.62707 6.80589 8.44298 6.9353L7.62198 7.50987L5.58198 6.88741L4.56498 8.57666L6.14798 9.95659L6.03598 10.9267C5.98678 11.3505 5.98678 11.7783 6.03598 12.2022L6.14798 13.1713L4.56498 14.5532L5.57998 16.2367L7.61998 15.6142ZM11.996 15.3949C9.78684 15.3949 7.99598 13.68 7.99598 11.5644C7.99598 9.44892 9.78684 7.73395 11.996 7.73395C14.2051 7.73395 15.996 9.44892 15.996 11.5644C15.9932 13.6789 14.204 15.3923 11.996 15.3949ZM11.996 9.6492C10.9034 9.65026 10.0139 10.4908 9.99821 11.537C9.98255 12.5832 10.8465 13.4478 11.9387 13.4788C13.0308 13.5099 13.9468 12.6959 13.996 11.6506V12.0337V11.5644C13.996 10.5067 13.1005 9.6492 11.996 9.6492Z" fill="white"/>
</svg>
