<svg width="16" height="16" viewBox="0 0 16 16" fill="none" xmlns="http://www.w3.org/2000/svg">
<path d="M6.45146 12.3883C6.22816 12.3883 6.01456 12.301 5.85437 12.1408L3.24757 9.53398C3.08738 9.37379 3 9.16505 3 8.93689C3 8.71359 3.08738 8.5 3.24757 8.33981C3.40777 8.17961 3.6165 8.09223 3.84466 8.09223C4.06796 8.09223 4.28155 8.17961 4.44175 8.33981L6.45146 10.3592L12.5631 4.24757C12.7233 4.08738 12.932 4 13.1602 4C13.3835 4 13.5971 4.08738 13.7573 4.24757C13.9175 4.40777 14.0049 4.6165 14.0049 4.84466C14.0049 5.06796 13.9175 5.28155 13.7573 5.44175L7.04854 12.1456C6.88835 12.301 6.67476 12.3883 6.45146 12.3883Z" fill="#39B54A" fill-opacity="0.2"/>
</svg>
