<svg width="24" height="24" viewBox="0 0 24 24" fill="none" xmlns="http://www.w3.org/2000/svg">
<path d="M5 20.98H3V20.0224C3.00441 16.322 6.13583 13.3233 10 13.319H14C17.8642 13.3233 20.9956 16.322 21 20.0224V20.98H19V20.0224C18.9967 17.3793 16.7601 15.2374 14 15.2343H10C7.23995 15.2374 5.00331 17.3793 5 20.0224V20.98ZM12 12.3614C9.23858 12.3614 7 10.2177 7 7.5733C7 4.9289 9.23858 2.78519 12 2.78519C14.7614 2.78519 17 4.9289 17 7.5733C16.9967 10.2164 14.7601 12.3582 12 12.3614ZM12 4.70043C10.3431 4.70043 9 5.98666 9 7.5733C9 9.15994 10.3431 10.4462 12 10.4462C13.6569 10.4462 15 9.15994 15 7.5733C15 5.98666 13.6569 4.70043 12 4.70043Z" fill="white"/>
</svg>
