<svg width="169" height="182" viewBox="0 0 169 182" fill="none" xmlns="http://www.w3.org/2000/svg">
<path d="M14.4962 84.0886C17.3387 68.155 25.7071 53.7334 38.1303 43.3591C50.5535 32.9849 66.2362 27.3222 82.4213 27.3664L82.3251 62.5677C74.4203 62.546 66.7608 65.3117 60.6933 70.3785C54.6258 75.4453 50.5387 82.4888 49.1504 90.2708L14.4962 84.0886Z" fill="#F3F3F4"/>
<path d="M29.2648 145.225C20.9992 137.003 14.8494 126.901 11.342 115.782C8.26418 106.026 7.30165 95.7419 8.49841 85.6141C8.77556 83.2687 11.0105 81.7215 13.3354 82.1371L41.2472 87.1268C43.5721 87.5424 45.0923 89.7661 44.9613 92.1242C44.7259 96.3585 45.2564 100.613 46.5392 104.679C48.2522 110.109 51.2558 115.044 55.2927 119.059L29.2648 145.225Z" fill="#FF922B"/>
<path d="M78.7147 4.27635C78.7147 1.91459 80.6306 -0.0102995 82.9898 0.0986311C102.427 0.996096 121.131 7.99532 136.412 20.1574C151.694 32.3194 162.712 48.9747 167.949 67.7149C168.585 69.9895 167.139 72.2885 164.838 72.8186L119.75 83.2031C117.448 83.7331 115.176 82.2855 114.39 80.0585C112.036 73.3923 107.85 67.4896 102.274 63.0518C96.6981 58.6141 90.0064 55.8598 82.9822 55.0625C80.6355 54.7961 78.7147 52.9065 78.7147 50.5447V4.27635Z" fill="#339AF0"/>
<path d="M156.939 74.312C160.933 91.3443 159.258 109.215 152.17 125.208C145.082 141.202 132.967 154.446 117.666 162.927C102.365 171.408 84.7141 174.663 67.3944 172.198C51.489 169.935 36.6612 162.961 24.7983 152.223C23.0473 150.638 23.0639 147.921 24.7397 146.257L50.8713 120.305C56.892 126.368 64.7269 130.3 73.1859 131.504C81.6448 132.707 90.2655 131.117 97.7385 126.975C105.211 122.833 111.128 116.365 114.59 108.554C117.472 102.051 118.522 94.9126 117.667 87.9043C117.381 85.5599 118.783 83.2588 121.083 82.7196L156.939 74.312Z" fill="#51CF66"/>
<g filter="url(#filter0_d_1_284)">
<circle cx="82.3099" cy="94.1111" r="41.3695" fill="white"/>
</g>
<defs>
<filter id="filter0_d_1_284" x="0.315079" y="17.8181" width="163.99" height="163.99" filterUnits="userSpaceOnUse" color-interpolation-filters="sRGB">
<feFlood flood-opacity="0" result="BackgroundImageFix"/>
<feColorMatrix in="SourceAlpha" type="matrix" values="0 0 0 0 0 0 0 0 0 0 0 0 0 0 0 0 0 0 127 0" result="hardAlpha"/>
<feOffset dy="5.70179"/>
<feGaussianBlur stdDeviation="20.3126"/>
<feColorMatrix type="matrix" values="0 0 0 0 0 0 0 0 0 0 0 0 0 0 0 0 0 0 0.14 0"/>
<feBlend mode="normal" in2="BackgroundImageFix" result="effect1_dropShadow_1_284"/>
<feBlend mode="normal" in="SourceGraphic" in2="effect1_dropShadow_1_284" result="shape"/>
</filter>
</defs>
</svg>
